# Blender v2.74 (sub 0) OBJ File: 'chain_simple.blend'
# www.blender.org
v 0.009190 -1.351760 -1.583684
v 0.287754 -1.232261 -1.633678
v -0.283385 -1.246432 -1.654508
v -0.010020 1.355430 -1.616143
v 0.283848 1.245286 -1.633767
v 0.400000 0.905894 -1.493426
v 0.273240 0.593191 -1.513995
v -0.002156 0.579964 -1.826243
v -0.285566 0.666895 -1.656909
v -0.394464 0.853983 -1.344006
v -0.286700 1.229769 -1.607594
v 0.128414 0.988843 -1.011159
v -0.009272 0.228348 -1.411342
v -0.293836 0.716809 -0.927218
v 0.011662 0.257445 -0.594680
v 0.385941 0.228191 -0.852805
v -0.276698 0.140715 -1.292576
v 0.278794 -0.136147 -1.290730
v -0.391165 0.078852 -0.849071
v 0.000000 -0.785648 -0.824195
v 0.285621 -0.728543 -0.909659
v 0.394464 -0.853984 -1.344006
v 0.008553 -0.520831 -1.625110
v -0.273240 -0.593191 -1.513995
v -0.282003 -0.725433 -0.905673
v 0.282507 -0.664188 -1.654369
v -0.403562 -0.922459 -1.527536
v -0.173906 -1.337204 -3.358979
v 0.277972 -1.192934 -3.591519
v 0.401797 -0.917970 -3.470005
v 0.273240 -0.593191 -3.463806
v -0.003938 -0.579325 -3.156224
v -0.281332 -0.615335 -3.454260
v -0.399962 -0.923022 -3.451255
v 0.000000 -0.833008 -4.131314
v 0.000000 -0.209766 -3.569111
v -0.290240 -0.689909 -4.079680
v 0.385941 -0.228189 -4.124998
v -0.377021 0.297063 -4.157039
v -0.000000 -0.000000 -4.377803
v 0.276698 0.140716 -3.685227
v -0.276698 0.140715 -3.685227
v -0.011382 0.813282 -4.140603
v 0.282002 0.725431 -4.072134
v 0.396978 0.869108 -3.622381
v 0.008553 0.520831 -3.352692
v -0.402594 0.844237 -3.658911
v 0.285566 0.666896 -3.320895
v -0.279031 0.651103 -3.333166
v -0.289710 1.195414 -3.545462
v 0.172677 1.331051 -3.384864
vt 0.813566 0.423561
vt 0.790467 0.104402
vt 0.873025 0.114295
vt 0.986295 0.590894
vt 0.971606 0.869287
vt 0.926070 0.870354
vt 0.450945 0.432291
vt 0.433125 0.110462
vt 0.486288 0.088495
vt 0.919028 0.421442
vt 0.913208 0.124776
vt 1.000000 0.092512
vt 0.002238 0.179620
vt 0.064347 0.152796
vt 0.092678 0.505878
vt 0.000000 0.835548
vt 0.002510 0.587373
vt 0.051746 0.628381
vt 0.938689 0.616846
vt 0.873025 0.862778
vt 0.419781 0.158172
vt 0.433125 0.483544
vt 0.392370 0.465115
vt 0.358917 0.112812
vt 0.330503 0.467552
vt 0.626199 0.546554
vt 0.651210 0.795897
vt 0.571868 0.833783
vt 0.763758 0.428641
vt 0.743584 0.106567
vt 0.051660 0.848876
vt 0.099542 0.579880
vt 0.513130 0.472590
vt 0.529084 0.139923
vt 0.110240 0.154158
vt 0.117433 0.454658
vt 0.030335 0.074854
vt 0.166970 0.779972
vt 0.169494 0.700463
vt 0.217449 0.783768
vt 0.555024 0.565298
vt 0.541428 0.696614
vt 0.465962 0.650500
vt 0.486571 0.790466
vt 0.433125 0.772469
vt 0.171015 0.040674
vt 0.217316 0.680233
vt 0.268090 0.579880
vt 0.268090 0.706372
vt 0.217449 0.642244
vt 0.641063 0.473085
vt 0.651552 0.546554
vt 0.521664 0.919674
vt 0.474673 0.904136
vt 0.327231 0.042357
vt 0.013537 0.933084
vt 0.072937 0.944637
vt 0.167113 0.597254
vt 0.217449 0.579880
vt 0.571868 0.904209
vt 0.972275 0.417082
vt 0.979338 0.537982
vt 1.000000 0.467209
vt 0.880953 0.531093
vt 0.873025 0.406001
vt 0.314716 0.641888
vt 0.363190 0.579880
vt 0.363190 0.669675
vt 0.166970 0.579880
vt 0.150038 0.666687
vt 0.104887 0.594013
vt 0.801188 0.546554
vt 0.807021 0.691499
vt 0.757496 0.668030
vt 0.680238 0.755014
vt 0.717515 0.575790
vt 0.282167 0.579880
vt 0.574815 0.000000
vt 0.748287 0.002073
vt 0.314716 0.579880
vt 0.314716 0.703782
vt 0.268090 0.640704
vt 0.099542 0.721804
vt 0.807021 0.849782
vt 0.743284 0.811367
vt 0.734752 0.922800
vt 0.684680 0.900599
vt 0.115245 0.579880
vt 0.363190 0.667023
vt 0.395265 0.579880
vt 0.395265 0.700517
vt 0.166970 0.754618
vt 0.209391 0.510631
vt 0.612001 0.076156
vt 0.572732 1.000000
vt 0.626379 0.949302
vt 0.873025 0.398529
vt 0.000000 0.471595
vt 0.892987 0.562795
vt 0.324020 0.166543
vt 0.580116 0.558469
vt 0.680238 0.556705
vt 0.099542 0.854625
vt 0.546438 0.418202
vt 0.504968 0.546554
vt 0.457766 0.560670
vt 0.955860 0.548242
vt 0.571868 0.641465
vt 0.231060 0.110766
vt 0.546391 0.539817
vt 0.569807 0.794336
vt 0.142729 0.000000
vt 0.793293 0.528213
vt 0.926564 0.548242
vt 0.972241 0.000000
vt 0.833528 0.780965
vt 0.807021 0.736326
vt 0.833528 0.546554
vt 0.890116 0.923749
vt 0.986295 0.928120
vt 0.680238 0.945384
vn -0.877600 -0.479300 -0.001500
vn -0.412200 -0.911100 0.007000
vn -0.951600 0.307200 -0.004000
vn 0.286400 -0.957400 -0.037400
vn 0.947000 0.321200 -0.006900
vn 0.092600 0.995000 0.038600
vn 0.462700 -0.885700 0.037600
vn 0.913800 -0.405900 -0.012700
vn 0.929700 0.368200 -0.007900
vn -0.268100 0.962500 -0.041000
vn -0.933100 0.359700 -0.000200
vn -0.089100 0.995300 -0.037300
vn -0.846300 -0.532700 0.005200
vn 0.866500 -0.498900 -0.014400
vn 0.813800 0.436900 0.383100
vn -0.528400 -0.643200 -0.554200
vn -0.368600 0.744100 0.557100
vn 0.551000 0.344800 0.759900
vn 0.880700 -0.335000 -0.335000
vn -0.174600 -0.562500 -0.808100
vn -0.158600 0.507600 0.846900
vn 0.030300 -0.292400 -0.955800
vn -0.947000 -0.175700 -0.268900
vn 0.318200 -0.207100 0.925100
vn 0.955000 -0.116400 0.272900
vn 0.609600 0.230900 -0.758300
vn -0.409000 0.241400 -0.880000
vn -0.968300 0.068000 -0.240400
vn -0.311300 -0.200900 0.928800
vn -0.805900 0.338900 -0.485500
vn 0.413800 -0.746700 0.520700
vn 0.802700 -0.488500 0.342200
vn -0.397900 -0.752700 0.524400
vn 0.615900 0.584100 0.528700
vn -0.629000 0.582200 0.515100
vn -0.444800 -0.700900 -0.557700
vn 0.664200 -0.417300 -0.620300
vn 0.877400 0.340800 0.337700
vn -0.972900 -0.101800 -0.207600
vn 0.036100 0.288500 0.956800
vn -0.031000 0.292200 0.955900
vn -0.567300 -0.113800 -0.815600
vn 0.295100 0.271300 -0.916100
vn 0.952100 0.119400 -0.281500
vn 0.610900 -0.231400 0.757100
vn -0.601500 -0.220400 0.767900
vn -0.326800 0.260400 -0.908500
vn 0.955800 -0.178000 0.233800
vn -0.950400 -0.179600 0.254000
vn -0.641300 0.473400 -0.603900
vn -0.050200 0.829600 -0.556100
vn -0.942100 -0.332700 -0.042800
vn -0.273700 -0.961200 0.035300
vn -0.960800 0.277100 0.002200
vn 0.391100 -0.920100 -0.020400
vn 0.891900 0.450800 -0.034500
vn 0.460200 0.887000 -0.037600
vn 0.093100 -0.994900 -0.039900
vn 0.960000 -0.279800 0.011700
vn 0.849300 0.527700 0.016400
vn -0.413900 0.910200 -0.015500
vn -0.929800 0.368100 -0.001800
vn -0.344600 -0.938400 0.027800
vn 0.352100 0.935700 0.023500
vn -0.252400 0.967600 -0.010000
vn -0.863200 -0.504800 0.001400
vn 0.926600 -0.376000 0.005200
vn 0.339400 0.836900 0.429400
vn 0.605800 -0.612100 -0.508300
vn -0.805200 0.477500 0.351600
vn -0.333200 0.770600 0.543200
vn 0.835900 0.367800 0.407500
vn -0.957700 -0.174600 -0.228900
vn 0.979200 -0.052500 -0.195900
vn -0.941400 0.178700 0.286100
vn -0.582200 0.185800 0.791500
vn 0.558700 -0.107500 0.822400
vn 0.913100 0.174500 -0.368600
vn -0.460900 0.254300 -0.850200
vn -0.488700 -0.127100 0.863100
vn 0.955500 0.171800 -0.239700
vn 0.205000 0.556100 -0.805400
vn -0.961000 -0.146900 0.234400
vn 0.321500 -0.757300 0.568400
vn -0.848500 -0.433600 0.303300
vn -0.324900 -0.760200 0.562700
vn -0.015800 -0.835600 -0.549100
vn -0.796800 -0.507800 -0.327500
vn 0.910700 -0.273200 -0.309800
vn -0.798200 0.312800 0.514800
vn 0.418200 -0.257700 -0.871000
vn 0.978800 0.054900 0.197100
vn -0.969800 0.076700 0.231600
vn -0.296500 -0.271000 -0.915800
vn 0.588800 0.108600 -0.800900
vn 0.907400 -0.182500 0.378500
vn -0.972700 -0.179600 0.147300
vn 0.202900 -0.559700 0.803400
vn -0.197700 -0.557200 0.806500
vn -0.774400 0.405800 -0.485500
vn 0.354900 0.728700 -0.585700
vn 0.748100 0.552300 -0.367700
s off
f 27/1/1 34/2/1 28/3/1
f 9/4/2 49/5/2 46/6/2
f 11/7/3 50/8/3 47/9/3
f 1/10/4 28/11/4 29/12/4
f 5/13/5 6/14/5 45/15/5
f 26/16/6 31/17/6 32/18/6
f 8/19/7 46/6/7 48/20/7
f 2/21/8 29/22/8 30/23/8
f 22/24/9 30/23/9 31/25/9
f 4/26/10 51/27/10 50/28/10
f 24/29/11 33/30/11 34/2/11
f 23/31/12 32/18/12 33/32/12
f 10/33/13 47/9/13 49/34/13
f 7/35/14 48/36/14 45/15/14
f 5/13/15 12/37/15 6/14/15
f 8/38/16 13/39/16 9/40/16
f 11/41/17 14/42/17 12/43/17
f 15/44/18 16/45/18 12/43/18
f 6/14/19 16/46/19 7/35/19
f 13/39/20 17/47/20 9/40/20
f 14/42/21 15/44/21 12/43/21
f 7/48/22 18/49/22 13/50/22
f 17/51/23 19/52/23 10/33/23
f 15/44/24 20/53/24 21/54/24
f 21/55/25 22/24/25 16/46/25
f 18/56/26 23/31/26 13/57/26
f 13/39/27 23/58/27 24/59/27
f 17/51/28 24/29/28 19/52/28
f 25/60/29 20/53/29 15/44/29
f 24/29/30 27/1/30 19/52/30
f 1/10/31 2/61/31 21/62/31
f 21/62/32 2/61/32 22/63/32
f 25/64/33 3/65/33 1/10/33
f 31/66/34 36/67/34 32/68/34
f 32/69/35 36/70/35 33/71/35
f 28/72/36 37/73/36 35/74/36
f 35/74/37 38/75/37 29/76/37
f 30/23/38 38/77/38 31/25/38
f 34/2/39 39/78/39 37/79/39
f 31/80/40 41/81/40 36/82/40
f 36/70/41 42/83/41 33/71/41
f 37/73/42 39/84/42 40/85/42
f 40/85/43 43/86/43 44/87/43
f 44/88/44 45/15/44 38/77/44
f 41/89/45 46/90/45 36/91/45
f 36/70/46 46/92/46 42/83/46
f 39/84/47 43/86/47 40/85/47
f 45/15/48 48/36/48 41/93/48
f 42/94/49 49/34/49 47/9/49
f 39/95/50 50/28/50 43/96/50
f 50/28/51 51/27/51 43/96/51
f 3/97/52 27/1/52 28/3/52
f 8/19/53 9/4/53 46/6/53
f 10/33/54 11/7/54 47/9/54
f 2/61/55 1/10/55 29/12/55
f 51/98/56 5/13/56 45/15/56
f 23/31/57 26/16/57 32/18/57
f 7/99/58 8/19/58 48/20/58
f 22/24/59 2/21/59 30/23/59
f 26/100/60 22/24/60 31/25/60
f 11/101/61 4/26/61 50/28/61
f 27/1/62 24/29/62 34/2/62
f 1/10/63 3/65/63 28/11/63
f 4/26/64 5/102/64 51/27/64
f 24/103/65 23/31/65 33/32/65
f 9/104/66 10/33/66 49/34/66
f 6/14/67 7/35/67 45/15/67
f 4/105/68 12/43/68 5/106/68
f 8/19/69 7/99/69 13/107/69
f 11/41/70 10/108/70 14/42/70
f 4/105/71 11/41/71 12/43/71
f 12/37/72 16/46/72 6/14/72
f 9/104/73 17/51/73 10/33/73
f 7/35/74 16/46/74 18/109/74
f 10/33/75 19/52/75 14/110/75
f 14/42/76 19/111/76 15/44/76
f 16/46/77 15/112/77 21/55/77
f 16/46/78 22/24/78 18/109/78
f 17/47/79 13/39/79 24/59/79
f 19/111/80 25/60/80 15/44/80
f 18/109/81 22/24/81 26/100/81
f 18/56/82 26/16/82 23/31/82
f 19/52/83 27/1/83 25/113/83
f 20/114/84 1/10/84 21/62/84
f 25/113/85 27/1/85 3/97/85
f 20/114/86 25/64/86 1/10/86
f 28/11/87 35/115/87 29/12/87
f 28/3/88 34/2/88 37/79/88
f 29/22/89 38/77/89 30/23/89
f 34/116/90 33/117/90 39/118/90
f 35/74/91 40/85/91 38/75/91
f 31/25/92 38/77/92 41/93/92
f 33/30/93 42/94/93 39/78/93
f 35/74/94 37/73/94 40/85/94
f 38/75/95 40/85/95 44/87/95
f 38/77/96 45/15/96 41/93/96
f 39/78/97 42/94/97 47/9/97
f 41/119/98 48/20/98 46/6/98
f 42/120/99 46/6/99 49/5/99
f 39/78/100 47/9/100 50/8/100
f 43/96/101 51/27/101 44/121/101
f 44/88/102 51/98/102 45/15/102
v 1.350420 -0.141599 0.402296
v 1.096111 0.395188 0.343841
v -1.337204 -0.173907 0.381173
v -1.246639 0.282323 0.363560
v -0.523066 0.252264 0.572729
v -0.568114 -0.167351 0.290481
v -0.793276 -0.372685 0.938921
v -0.775643 0.011662 1.199825
v -0.766029 0.393531 0.886109
v -0.209766 -0.000000 0.591308
v -0.320356 -0.396427 0.837454
v 0.227311 -0.113023 1.391169
v -0.039176 0.392552 1.164363
v 0.615335 0.281331 0.476456
v 0.520831 0.008553 0.374890
v 0.593191 -0.273240 0.486005
v 0.854760 -0.399530 0.656666
v 0.753984 -0.290239 1.059066
v 0.840516 0.207354 1.091817
v 1.337203 -0.173907 -1.358976
v 1.247242 0.278534 -1.345585
v 0.854761 0.399530 -1.634468
v 0.648924 0.277037 -1.335414
v 0.579326 -0.003938 -1.156224
v 0.615334 -0.281331 -1.454259
v 0.775478 -0.385328 -1.878797
v 0.796310 -0.000000 -2.169563
v 0.716810 0.293836 -2.050582
v 0.209766 -0.000000 -1.569111
v -0.043544 -0.393149 -2.141664
v -0.311135 0.152128 -2.356672
v -0.129557 0.394661 -1.866960
v -0.523066 -0.252264 -1.550532
v -0.615335 0.281331 -1.454259
v -0.520831 0.008553 -1.352693
v -0.844236 -0.402594 -1.658911
v -0.866090 -0.216714 -2.041491
v -1.159927 0.287609 -1.624875
v -0.932686 0.398226 -1.438053
v -1.350420 -0.141599 -1.380098
vt 0.087674 0.125258
vt 0.098370 0.506842
vt 0.003122 0.427262
vt 0.430875 0.814048
vt 0.409038 0.530692
vt 0.450161 0.560307
vt 0.409038 0.139778
vt 0.409038 0.404564
vt 0.344831 0.459146
vt 0.907647 0.893769
vt 0.904746 0.622206
vt 0.978105 0.624701
vt 0.418738 0.102248
vt 0.503129 0.028891
vt 0.450055 0.374327
vt 0.495988 0.845325
vt 0.495425 0.565953
vt 0.540472 0.593542
vt 0.495425 0.543551
vt 0.786466 0.142957
vt 0.786466 0.402589
vt 0.725824 0.435226
vt 0.693470 0.390571
vt 0.121187 0.144821
vt 0.117733 0.438162
vt 0.786466 0.367168
vt 0.801720 0.060819
vt 0.868514 0.102348
vt 0.539639 0.829695
vt 0.584294 0.547342
vt 0.336314 0.066567
vt 0.288902 0.441271
vt 0.532802 0.084564
vt 0.495555 0.385989
vt 0.587438 0.768940
vt 0.662032 0.781867
vt 0.665101 0.865652
vt 0.198773 0.565568
vt 0.231327 0.539163
vt 0.231327 0.615621
vt 0.292093 0.160404
vt 0.265733 0.086978
vt 0.884324 0.459882
vt 0.821054 0.496957
vt 0.859100 0.373709
vt 0.229754 0.113313
vt 0.584294 0.610418
vt 0.664162 0.665033
vt 0.619427 0.000000
vt 0.169148 0.000000
vt 0.665101 0.530692
vt 0.709662 0.118148
vt 0.113289 0.714909
vt 0.079519 0.702858
vt 0.072141 0.586503
vt 0.030766 0.711339
vt 0.000233 0.563989
vt 0.000000 0.747281
vt 0.097774 0.060313
vt 1.000000 0.885136
vt 0.979262 1.000000
vt 0.000000 0.160544
vt 0.951710 0.496957
vt 1.000000 0.515560
vt 0.705659 0.775014
vt 0.736930 0.704669
vt 0.758742 0.769322
vt 0.540833 0.530692
vt 0.904746 0.496957
vt 0.901875 0.570607
vt 0.828210 0.561207
vt 0.569831 0.452901
vt 0.665101 0.644960
vt 0.222857 0.539163
vt 0.696158 0.498486
vt 0.528214 0.530692
vt 0.113289 0.650598
vt 0.157865 0.539163
vt 0.157865 0.715223
vt 0.881665 0.689520
vt 0.786466 0.725975
vt 0.713859 0.579450
vt 0.758742 0.597260
vt 0.198773 0.539163
vt 0.198773 0.653261
vt 0.157865 0.651872
vt 0.904746 0.822558
vt 0.855023 0.817389
vt 0.802041 0.872140
vt 0.409038 0.401784
vt 0.878266 0.906324
vt 0.495425 0.856218
vt 0.584294 0.846484
vt 0.315138 0.015859
vt 0.113289 0.539163
vt 0.749592 0.032144
vt 0.592871 0.536056
vt 0.905195 0.994310
vt 0.790918 0.576316
vt 0.701959 0.530692
vt 0.884324 0.000000
vn 0.365700 -0.930600 -0.016600
vn 0.999300 -0.028100 0.025700
vn -0.463800 -0.885900 -0.012800
vn 0.980700 0.195300 -0.010900
vn -0.245500 0.969200 0.019600
vn -0.973200 0.229200 -0.018600
vn 0.935300 0.347900 0.064200
vn 0.319100 0.947000 -0.036800
vn -0.448500 0.892000 0.056700
vn -0.549800 -0.835300 -0.002800
vn -0.921400 0.386600 -0.039200
vn -0.995300 -0.089100 -0.037300
vn 0.423300 -0.906000 0.002100
vn 0.345500 0.938400 -0.002300
vn -0.698900 0.464500 0.543900
vn 0.426500 0.472900 -0.771100
vn -0.119200 -0.933900 -0.337100
vn -0.728600 -0.361500 0.581700
vn 0.679400 -0.514400 -0.523200
vn -0.134200 0.345900 0.928600
vn 0.125700 0.937300 -0.325100
vn 0.044600 -0.906500 0.419900
vn 0.171500 0.477100 0.862000
vn -0.041800 0.979300 -0.198100
vn -0.262800 0.415300 -0.870900
vn -0.254600 -0.410600 -0.875600
vn -0.080700 -0.856400 -0.510000
vn 0.039200 -0.961800 0.271000
vn -0.320100 0.838900 -0.440200
vn 0.816400 0.428900 0.386700
vn 0.566500 -0.748300 0.345100
vn 0.730700 0.416700 -0.540800
vn -0.633300 0.521500 0.571800
vn -0.582200 -0.629000 0.515100
vn 0.690300 -0.459200 -0.559100
vn -0.082300 0.940800 0.328700
vn -0.540200 0.159200 0.826400
vn -0.060000 -0.974500 0.216100
vn 0.009700 0.894600 -0.446700
vn -0.073600 0.284200 0.955900
vn 0.116000 -0.314600 -0.942100
vn 0.262800 0.415300 0.870900
vn 0.222900 -0.590400 0.775800
vn -0.238800 -0.878700 -0.413300
vn -0.201500 -0.443300 -0.873500
vn -0.604200 0.267900 -0.750400
vn -0.175000 0.925700 -0.335300
vn -0.570400 -0.751100 -0.332400
vn 0.466700 -0.884300 0.012700
vn -0.359200 -0.933100 0.017800
vn 0.900400 0.432100 0.050700
vn -0.426800 0.904200 -0.016200
vn -0.939700 0.339900 -0.038700
vn 0.996000 -0.075700 -0.046400
vn -0.232200 0.972700 -0.006600
vn -0.439400 -0.898300 0.008700
vn -0.980700 0.195100 0.010900
vn -0.967600 -0.252400 -0.010000
vn 0.746200 -0.663900 0.048900
vn 0.471200 0.881400 -0.032000
vn -0.829500 0.185000 0.527000
vn -0.281700 0.613300 0.737900
vn -0.222000 -0.540600 0.811400
vn -0.078700 -0.170100 -0.982300
vn -0.266000 -0.453900 -0.850500
vn -0.007500 -0.887100 0.461500
vn 0.220200 0.925600 0.307700
vn 0.493300 -0.142300 0.858200
vn 0.748300 -0.172300 0.640600
vn 0.835500 0.181500 -0.518600
vn 0.509800 0.778200 -0.366700
vn 0.206700 0.414700 -0.886200
vn 0.057500 0.962900 -0.263600
vn -0.041900 -0.979000 0.199400
vn 0.251500 -0.591600 -0.766000
vn 0.332600 0.733400 0.592900
vn 0.264100 -0.867700 0.421000
vn -0.183600 0.906300 -0.380800
vn 0.309000 0.759600 0.572300
vn -0.805600 0.019800 -0.592200
s off
f 68/122/103 77/123/103 71/124/103
f 57/125/104 84/126/104 86/127/104
f 54/128/105 91/129/105 87/130/105
f 52/131/106 71/132/106 72/133/106
f 55/134/107 60/135/107 90/136/107
f 65/137/108 74/138/108 75/139/108
f 57/125/109 86/127/109 85/140/109
f 53/141/110 72/142/110 73/143/110
f 53/141/111 73/143/111 74/144/111
f 67/145/112 76/146/112 77/123/112
f 55/147/113 89/148/113 91/149/113
f 66/150/114 75/139/114 76/151/114
f 58/152/115 87/130/115 84/153/115
f 56/154/116 85/155/116 90/136/116
f 59/156/117 60/157/117 55/158/117
f 56/159/118 61/160/118 57/161/118
f 57/162/119 62/163/119 58/152/119
f 58/164/120 59/165/120 54/166/120
f 61/167/121 62/163/121 57/162/121
f 59/156/122 63/168/122 64/169/122
f 60/135/123 64/170/123 56/154/123
f 62/163/124 63/171/124 58/152/124
f 63/168/125 70/172/125 64/169/125
f 64/170/126 65/173/126 56/154/126
f 65/174/127 66/175/127 61/176/127
f 61/176/128 66/175/128 67/177/128
f 62/178/129 67/177/129 68/179/129
f 62/163/130 68/122/130 69/180/130
f 64/170/131 53/141/131 65/173/131
f 52/131/132 53/181/132 70/182/132
f 68/122/133 52/183/133 69/180/133
f 78/184/134 79/185/134 72/133/134
f 74/186/135 80/187/135 75/188/135
f 75/139/136 80/189/136 76/151/136
f 71/190/137 77/191/137 78/192/137
f 73/143/138 83/193/138 74/144/138
f 74/186/139 83/194/139 80/187/139
f 76/146/140 81/195/140 77/123/140
f 79/196/141 82/197/141 83/193/141
f 80/198/142 84/199/142 76/200/142
f 81/201/143 82/202/143 78/192/143
f 85/203/144 86/204/144 80/187/144
f 80/205/145 86/206/145 84/207/145
f 87/208/146 88/209/146 81/201/146
f 81/201/147 88/209/147 82/202/147
f 82/202/148 88/209/148 89/210/148
f 89/211/149 90/136/149 83/193/149
f 87/208/150 91/212/150 88/209/150
f 52/183/151 68/122/151 71/124/151
f 58/152/152 54/128/152 87/130/152
f 53/181/153 52/131/153 72/133/153
f 89/211/154 55/134/154 90/136/154
f 66/150/155 65/137/155 75/139/155
f 56/213/156 57/125/156 85/140/156
f 65/173/157 53/141/157 74/144/157
f 68/122/158 67/145/158 77/123/158
f 54/166/159 55/147/159 91/149/159
f 67/214/160 66/150/160 76/151/160
f 57/162/161 58/152/161 84/153/161
f 60/135/162 56/154/162 90/136/162
f 54/166/163 59/165/163 55/147/163
f 60/157/164 59/156/164 64/169/164
f 58/152/165 63/171/165 59/215/165
f 56/216/166 65/174/166 61/176/166
f 62/178/167 61/176/167 67/177/167
f 63/171/168 62/163/168 69/180/168
f 64/170/169 70/217/169 53/141/169
f 63/168/170 69/218/170 70/172/170
f 70/182/171 69/219/171 52/131/171
f 71/132/172 78/184/172 72/133/172
f 72/142/173 79/196/173 73/143/173
f 79/220/174 78/192/174 82/202/174
f 73/143/175 79/196/175 83/193/175
f 76/146/176 84/153/176 81/195/176
f 77/191/177 81/201/177 78/192/177
f 83/194/178 85/203/178 80/187/178
f 81/195/179 84/153/179 87/130/179
f 82/197/180 89/211/180 83/193/180
f 83/194/181 90/221/181 85/203/181
f 88/222/182 91/149/182 89/148/182
