# Blender v2.74 (sub 0) OBJ File: 'hook.blend'
# www.blender.org
v 0.300014 -0.014286 -0.800000
v -2.214286 -0.014286 0.000000
v -0.810291 0.470628 -0.280027
v 0.300014 0.678535 0.400000
v -0.810291 -0.014393 0.560053
v 0.300014 -0.707106 0.400000
v -0.810291 -0.499413 -0.280026
v -1.030945 -0.014286 -0.150106
v -1.030945 0.115710 -0.075053
v -1.030945 0.115710 0.075053
v -1.030945 -0.014286 0.150106
v -1.030945 -0.144281 0.075053
v -1.030945 -0.144281 -0.075053
v 0.809623 -0.014286 -0.150106
v 0.809623 0.115710 -0.075053
v 0.809623 0.115710 0.075053
v 0.809623 -0.014286 0.150106
v 0.809623 -0.144281 0.075053
v 0.809623 -0.144281 -0.075053
v -1.485102 -0.014352 0.330400
v -0.853300 0.501755 0.297928
v -0.853300 -0.014273 -0.595857
v -1.485102 0.271782 -0.165200
v -1.485102 -0.300487 -0.165200
v -0.853300 -0.530300 0.297928
v -0.402230 0.208213 -0.495572
v -0.402230 0.526115 0.055050
v -0.402230 0.303562 0.440522
v -0.402230 -0.332241 0.440522
v -0.402230 -0.554793 0.055050
v -0.402230 -0.236891 -0.495572
vn -0.359700 -0.932600 0.027900
vn -0.359700 0.442400 -0.821500
vn -0.359700 -0.490400 0.793800
vn -0.359700 0.490300 0.793900
vn -0.359700 -0.442200 -0.821600
vn -0.359700 0.932700 0.027500
vn 0.000000 -0.500000 -0.866000
vn 0.476400 0.018700 0.879000
vn 0.849300 -0.528000 -0.000000
vn 0.476400 -0.770600 -0.423400
vn 0.849400 0.263900 -0.457100
vn 0.476400 0.751800 -0.455900
vn 0.849400 0.263900 0.457100
vn 1.000000 -0.000000 0.000000
vn 0.000000 -1.000000 -0.000000
vn 0.000000 -0.500000 0.866000
vn 0.000000 0.500000 0.866000
vn 0.000000 1.000000 0.000000
vn 0.000000 0.500000 -0.866000
vn -0.086000 0.994500 -0.060000
vn -0.086100 -0.548900 -0.831400
vn -0.293300 0.413300 0.862000
vn -0.086000 -0.445600 0.891100
vn -0.293300 0.539900 -0.789000
vn -0.293400 -0.953200 -0.072800
vn 0.849300 -0.264000 0.457200
vn 0.433600 0.153500 0.887900
vn 0.433600 -0.692300 -0.576800
vn 0.476400 -0.752000 -0.455600
vn 0.849300 -0.264000 -0.457200
vn 0.433600 -0.845700 -0.311200
vn 0.433600 0.845800 -0.310900
vn 0.476400 0.770700 -0.423100
vn 0.849400 0.527800 0.000000
vn 0.433600 0.692100 -0.577000
vn 0.433600 -0.153500 0.888000
vn 0.476400 -0.018700 0.879000
vn -0.136300 0.978500 -0.154900
vn -0.293300 0.953200 -0.073200
vn -0.136300 -0.623100 -0.770100
vn -0.293400 -0.539700 -0.789100
vn -0.086000 0.445400 0.891200
vn -0.136300 0.355200 0.924800
vn -0.136300 -0.355300 0.924700
vn -0.293400 -0.413500 0.862000
vn -0.086000 0.549100 -0.831300
vn -0.136300 0.623400 -0.770000
vn -0.086100 -0.994500 -0.059600
vn -0.136300 -0.978500 -0.154500
s off
f 25//1 2//1 24//1
f 22//2 2//2 23//2
f 20//3 2//3 25//3
f 21//4 2//4 20//4
f 24//5 2//5 22//5
f 23//6 2//6 21//6
f 8//7 14//7 19//7
f 3//8 8//8 26//8
f 10//9 9//9 3//9
f 5//10 10//10 28//10
f 12//11 11//11 5//11
f 7//12 12//12 30//12
f 8//13 13//13 7//13
f 14//14 16//14 17//14
f 13//15 19//15 18//15
f 12//16 18//16 17//16
f 11//17 17//17 16//17
f 10//18 16//18 15//18
f 9//19 15//19 14//19
f 3//20 21//20 27//20
f 7//21 22//21 31//21
f 21//22 20//22 5//22
f 5//23 25//23 29//23
f 22//24 23//24 3//24
f 25//25 24//25 7//25
f 13//7 8//7 19//7
f 8//26 3//26 9//26
f 8//27 1//27 26//27
f 27//28 4//28 10//28
f 10//29 3//29 27//29
f 10//30 5//30 11//30
f 10//31 4//31 28//31
f 29//32 6//32 12//32
f 12//33 5//33 29//33
f 12//34 7//34 13//34
f 12//35 6//35 30//35
f 31//36 1//36 8//36
f 8//37 7//37 31//37
f 18//14 19//14 14//14
f 14//14 17//14 18//14
f 14//14 15//14 16//14
f 12//15 13//15 18//15
f 11//16 12//16 17//16
f 10//17 11//17 16//17
f 9//18 10//18 15//18
f 8//19 9//19 14//19
f 21//38 4//38 27//38
f 21//39 3//39 23//39
f 22//40 1//40 31//40
f 22//41 7//41 24//41
f 21//42 5//42 28//42
f 28//43 4//43 21//43
f 25//44 6//44 29//44
f 25//45 5//45 20//45
f 22//46 3//46 26//46
f 26//47 1//47 22//47
f 25//48 7//48 30//48
f 30//49 6//49 25//49
v 1.166505 0.000000 -0.665998
v 1.166505 -0.134552 -0.610265
v 1.166505 -0.190285 -0.475713
v 1.166505 -0.134552 -0.341161
v 1.166505 0.000000 -0.285428
v 1.166505 0.134552 -0.341161
v 1.166505 0.190285 -0.475713
v 1.166505 0.134552 -0.610265
v 1.166505 0.000000 0.665998
v 1.166505 -0.134552 0.610265
v 1.166505 -0.190285 0.475713
v 1.166505 -0.134552 0.341161
v 1.166505 0.000000 0.285428
v 1.166505 0.134552 0.341161
v 1.166505 0.190285 0.475713
v 1.166505 0.134552 0.610265
v 0.911639 0.000000 0.615302
v 0.932967 -0.134552 0.563811
v 0.984458 -0.190285 0.439501
v 1.035949 -0.134552 0.315192
v 1.057277 0.000000 0.263701
v 1.035949 0.134552 0.315192
v 0.984458 0.190285 0.439501
v 0.932967 0.134552 0.563811
v 0.695574 0.000000 0.470932
v 0.734983 -0.134552 0.431522
v 0.830126 -0.190285 0.336380
v 0.925268 -0.134552 0.241237
v 0.964677 0.000000 0.201828
v 0.925268 0.134552 0.241237
v 0.830126 0.190285 0.336380
v 0.734983 0.134552 0.431522
v 0.551203 0.000000 0.254866
v 0.602694 -0.134552 0.233538
v 0.727004 -0.190285 0.182047
v 0.851314 -0.134552 0.130557
v 0.902804 0.000000 0.109228
v 0.851314 0.134552 0.130557
v 0.727004 0.190285 0.182047
v 0.602694 0.134552 0.233538
v 0.500507 0.000000 -0.000000
v 0.556240 -0.134552 -0.000000
v 0.690792 -0.190285 -0.000000
v 0.825344 -0.134552 -0.000000
v 0.881078 0.000000 -0.000000
v 0.825344 0.134552 -0.000000
v 0.690792 0.190285 -0.000000
v 0.556240 0.134552 -0.000000
v 0.551203 0.000000 -0.254867
v 0.602694 -0.134552 -0.233538
v 0.727004 -0.190285 -0.182048
v 0.851314 -0.134552 -0.130557
v 0.902804 0.000000 -0.109229
v 0.851314 0.134552 -0.130557
v 0.727004 0.190285 -0.182048
v 0.602694 0.134552 -0.233538
v 0.695573 0.000000 -0.470931
v 0.734983 -0.134552 -0.431522
v 0.830125 -0.190285 -0.336380
v 0.925268 -0.134552 -0.241237
v 0.964677 0.000000 -0.201828
v 0.925268 0.134552 -0.241237
v 0.830125 0.190285 -0.336380
v 0.734983 0.134552 -0.431522
v 0.911639 0.000000 -0.615302
v 0.932967 -0.134552 -0.563811
v 0.984458 -0.190285 -0.439501
v 1.035949 -0.134552 -0.315192
v 1.057277 0.000000 -0.263701
v 1.035949 0.134552 -0.315192
v 0.984458 0.190285 -0.439501
v 0.932967 0.134552 -0.563811
v 1.631659 0.000000 -0.665998
v 1.631659 -0.134552 -0.610265
v 1.631659 -0.190285 -0.475713
v 1.631659 -0.134552 -0.341161
v 1.631659 0.000000 -0.285428
v 1.631659 0.134552 -0.341161
v 1.631659 0.190285 -0.475713
v 1.631659 0.134552 -0.610265
v 1.886525 0.000000 -0.615302
v 1.865197 -0.134552 -0.563811
v 1.813706 -0.190285 -0.439502
v 1.762215 -0.134552 -0.315192
v 1.740887 0.000000 -0.263701
v 1.762215 0.134552 -0.315192
v 1.813706 0.190285 -0.439502
v 1.865197 0.134552 -0.563811
v 2.102590 0.000000 -0.470932
v 2.063181 -0.134552 -0.431522
v 1.968038 -0.190285 -0.336380
v 1.872896 -0.134552 -0.241237
v 1.833487 0.000000 -0.201828
v 1.872896 0.134552 -0.241237
v 1.968038 0.190285 -0.336380
v 2.063181 0.134552 -0.431523
v 2.246960 0.000000 -0.254867
v 2.195470 -0.134552 -0.233538
v 2.071160 -0.190285 -0.182048
v 1.946850 -0.134552 -0.130557
v 1.895360 0.000000 -0.109229
v 1.946850 0.134552 -0.130557
v 2.071160 0.190285 -0.182048
v 2.195470 0.134552 -0.233538
v 2.297657 0.000000 -0.000000
v 2.241923 -0.134552 -0.000000
v 2.107371 -0.190285 -0.000000
v 1.972820 -0.134552 -0.000000
v 1.917086 0.000000 -0.000000
v 1.972820 0.134552 -0.000000
v 2.107371 0.190285 -0.000000
v 2.241923 0.134552 -0.000000
v 2.246961 0.000000 0.254866
v 2.195470 -0.134552 0.233538
v 2.071160 -0.190285 0.182047
v 1.946850 -0.134552 0.130557
v 1.895360 0.000000 0.109228
v 1.946850 0.134552 0.130556
v 2.071160 0.190285 0.182047
v 2.195470 0.134552 0.233538
v 2.102590 0.000000 0.470932
v 2.063181 -0.134552 0.431522
v 1.968038 -0.190285 0.336380
v 1.872896 -0.134552 0.241237
v 1.833486 0.000000 0.201828
v 1.872896 0.134552 0.241237
v 1.968038 0.190285 0.336380
v 2.063181 0.134552 0.431522
v 1.886525 0.000000 0.615302
v 1.865197 -0.134552 0.563811
v 1.813706 -0.190285 0.439501
v 1.762215 -0.134552 0.315191
v 1.740887 0.000000 0.263701
v 1.762215 0.134552 0.315191
v 1.813706 0.190285 0.439501
v 1.865197 0.134552 0.563811
v 1.631659 0.000000 0.665998
v 1.631659 -0.134552 0.610265
v 1.631659 -0.190285 0.475713
v 1.631659 -0.134552 0.341161
v 1.631659 0.000000 0.285428
v 1.631659 0.134552 0.341161
v 1.631659 0.190285 0.475713
v 1.631659 0.134552 0.610265
vn -0.000000 0.923900 -0.382700
vn 0.000000 0.382700 -0.923900
vn 0.000000 0.923900 0.382700
vn -0.000000 -0.382700 -0.923900
vn 0.000000 -0.923900 0.382700
vn 0.000000 -0.382700 0.923900
vn 0.000000 -0.923900 -0.382700
vn 0.000000 0.382700 0.923900
vn -0.180700 -0.376400 0.908700
vn -0.075900 -0.921200 0.381600
vn 0.075900 -0.921200 -0.381600
vn 0.180700 -0.376400 -0.908700
vn 0.180700 0.376400 -0.908700
vn 0.075900 0.921200 -0.381600
vn -0.075900 0.921200 0.381600
vn -0.180700 0.376400 0.908700
vn -0.514700 -0.376400 0.770300
vn -0.216100 -0.921200 0.323500
vn 0.216100 -0.921200 -0.323500
vn 0.514700 -0.376400 -0.770300
vn 0.514700 0.376400 -0.770300
vn 0.216100 0.921200 -0.323500
vn -0.216100 0.921200 0.323500
vn -0.514700 0.376400 0.770300
vn -0.770300 -0.376400 0.514700
vn -0.323500 -0.921200 0.216100
vn 0.323500 -0.921200 -0.216100
vn 0.770300 -0.376400 -0.514700
vn 0.770300 0.376400 -0.514700
vn 0.323500 0.921200 -0.216100
vn -0.323500 0.921200 0.216100
vn -0.770300 0.376400 0.514700
vn -0.908700 -0.376400 0.180700
vn -0.381600 -0.921200 0.075900
vn 0.381600 -0.921200 -0.075900
vn 0.908700 -0.376400 -0.180700
vn 0.908700 0.376400 -0.180700
vn 0.381600 0.921200 -0.075900
vn -0.381600 0.921200 0.075900
vn -0.908700 0.376400 0.180700
vn -0.908700 -0.376400 -0.180700
vn -0.381600 -0.921200 -0.075900
vn 0.381600 -0.921200 0.075900
vn 0.908700 -0.376400 0.180700
vn 0.908700 0.376400 0.180700
vn 0.381600 0.921200 0.075900
vn -0.381600 0.921200 -0.075900
vn -0.908700 0.376400 -0.180700
vn -0.770300 -0.376400 -0.514700
vn -0.323500 -0.921200 -0.216100
vn 0.323500 -0.921200 0.216100
vn 0.770300 -0.376400 0.514700
vn 0.770300 0.376400 0.514700
vn 0.323500 0.921200 0.216100
vn -0.323500 0.921200 -0.216100
vn -0.770300 0.376400 -0.514700
vn -0.514700 -0.376400 -0.770300
vn -0.216100 -0.921200 -0.323500
vn 0.216100 -0.921200 0.323500
vn 0.514700 -0.376400 0.770300
vn 0.514700 0.376400 0.770300
vn 0.216100 0.921200 0.323500
vn -0.216100 0.921200 -0.323500
vn -0.514700 0.376400 -0.770300
vn -0.180700 -0.376400 -0.908700
vn -0.075900 -0.921200 -0.381600
vn 0.075900 -0.921200 0.381600
vn 0.180700 -0.376400 0.908700
vn 0.180700 0.376400 0.908700
vn 0.075900 0.921200 0.381600
vn -0.075900 0.921200 -0.381600
vn -0.180700 0.376400 -0.908700
s off
f 38//50 110//50 111//50
f 45//51 173//51 172//51
f 47//52 175//52 174//52
f 32//53 104//53 105//53
f 42//54 170//54 169//54
f 35//55 107//55 108//55
f 44//53 172//53 171//53
f 33//56 105//56 106//56
f 34//54 106//54 107//54
f 40//57 168//57 175//57
f 37//52 109//52 110//52
f 32//51 39//51 111//51
f 41//55 169//55 168//55
f 36//57 108//57 109//57
f 45//50 46//50 174//50
f 43//56 171//56 170//56
f 40//58 48//58 49//58
f 49//59 50//59 42//59
f 50//60 51//60 43//60
f 43//61 51//61 52//61
f 52//62 53//62 45//62
f 45//63 53//63 54//63
f 54//64 55//64 47//64
f 55//65 48//65 40//65
f 48//66 56//66 57//66
f 57//67 58//67 50//67
f 58//68 59//68 51//68
f 59//69 60//69 52//69
f 60//70 61//70 53//70
f 61//71 62//71 54//71
f 54//72 62//72 63//72
f 63//73 56//73 48//73
f 64//74 65//74 57//74
f 65//75 66//75 58//75
f 58//76 66//76 67//76
f 67//77 68//77 60//77
f 68//78 69//78 61//78
f 69//79 70//79 62//79
f 62//80 70//80 71//80
f 63//81 71//81 64//81
f 72//82 73//82 65//82
f 73//83 74//83 66//83
f 74//84 75//84 67//84
f 67//85 75//85 76//85
f 76//86 77//86 69//86
f 69//87 77//87 78//87
f 70//88 78//88 79//88
f 79//89 72//89 64//89
f 72//90 80//90 81//90
f 81//91 82//91 74//91
f 82//92 83//92 75//92
f 83//93 84//93 76//93
f 84//94 85//94 77//94
f 77//95 85//95 86//95
f 78//96 86//96 87//96
f 87//97 80//97 72//97
f 80//98 88//98 89//98
f 81//99 89//99 90//99
f 82//100 90//100 91//100
f 91//101 92//101 84//101
f 92//102 93//102 85//102
f 93//103 94//103 86//103
f 94//104 95//104 87//104
f 87//105 95//105 88//105
f 88//106 96//106 97//106
f 89//107 97//107 98//107
f 98//108 99//108 91//108
f 99//109 100//109 92//109
f 92//110 100//110 101//110
f 101//111 102//111 94//111
f 102//112 103//112 95//112
f 103//113 96//113 88//113
f 96//114 32//114 33//114
f 33//115 34//115 98//115
f 34//116 35//116 99//116
f 35//117 36//117 100//117
f 100//118 36//118 37//118
f 101//119 37//119 38//119
f 102//120 38//120 39//120
f 39//121 32//121 96//121
f 112//61 113//61 105//61
f 105//60 113//60 114//60
f 106//59 114//59 115//59
f 115//58 116//58 108//58
f 116//65 117//65 109//65
f 117//64 118//64 110//64
f 118//63 119//63 111//63
f 111//62 119//62 112//62
f 112//69 120//69 121//69
f 121//68 122//68 114//68
f 114//67 122//67 123//67
f 123//66 124//66 116//66
f 116//73 124//73 125//73
f 125//72 126//72 118//72
f 118//71 126//71 127//71
f 119//70 127//70 120//70
f 128//77 129//77 121//77
f 129//76 130//76 122//76
f 130//75 131//75 123//75
f 123//74 131//74 132//74
f 132//81 133//81 125//81
f 133//80 134//80 126//80
f 126//79 134//79 135//79
f 127//78 135//78 128//78
f 136//85 137//85 129//85
f 129//84 137//84 138//84
f 138//83 139//83 131//83
f 131//82 139//82 140//82
f 140//89 141//89 133//89
f 133//88 141//88 142//88
f 142//87 143//87 135//87
f 143//86 136//86 128//86
f 144//93 145//93 137//93
f 145//92 146//92 138//92
f 138//91 146//91 147//91
f 147//90 148//90 140//90
f 148//97 149//97 141//97
f 149//96 150//96 142//96
f 142//95 150//95 151//95
f 151//94 144//94 136//94
f 152//101 153//101 145//101
f 153//100 154//100 146//100
f 146//99 154//99 155//99
f 155//98 156//98 148//98
f 148//105 156//105 157//105
f 157//104 158//104 150//104
f 150//103 158//103 159//103
f 159//102 152//102 144//102
f 152//109 160//109 161//109
f 153//108 161//108 162//108
f 162//107 163//107 155//107
f 155//106 163//106 164//106
f 156//113 164//113 165//113
f 165//112 166//112 158//112
f 166//111 167//111 159//111
f 167//110 160//110 152//110
f 168//117 169//117 161//117
f 169//116 170//116 162//116
f 162//115 170//115 171//115
f 171//114 172//114 164//114
f 172//121 173//121 165//121
f 165//120 173//120 174//120
f 166//119 174//119 175//119
f 175//118 168//118 160//118
f 39//50 38//50 111//50
f 44//51 45//51 172//51
f 46//52 47//52 174//52
f 33//53 32//53 105//53
f 41//54 42//54 169//54
f 36//55 35//55 108//55
f 43//53 44//53 171//53
f 34//56 33//56 106//56
f 35//54 34//54 107//54
f 47//57 40//57 175//57
f 38//52 37//52 110//52
f 104//51 32//51 111//51
f 40//55 41//55 168//55
f 37//57 36//57 109//57
f 173//50 45//50 174//50
f 42//56 43//56 170//56
f 41//58 40//58 49//58
f 41//59 49//59 42//59
f 42//60 50//60 43//60
f 44//61 43//61 52//61
f 44//62 52//62 45//62
f 46//63 45//63 54//63
f 46//64 54//64 47//64
f 47//65 55//65 40//65
f 49//66 48//66 57//66
f 49//67 57//67 50//67
f 50//68 58//68 51//68
f 51//69 59//69 52//69
f 52//70 60//70 53//70
f 53//71 61//71 54//71
f 55//72 54//72 63//72
f 55//73 63//73 48//73
f 56//74 64//74 57//74
f 57//75 65//75 58//75
f 59//76 58//76 67//76
f 59//77 67//77 60//77
f 60//78 68//78 61//78
f 61//79 69//79 62//79
f 63//80 62//80 71//80
f 56//81 63//81 64//81
f 64//82 72//82 65//82
f 65//83 73//83 66//83
f 66//84 74//84 67//84
f 68//85 67//85 76//85
f 68//86 76//86 69//86
f 70//87 69//87 78//87
f 71//88 70//88 79//88
f 71//89 79//89 64//89
f 73//90 72//90 81//90
f 73//91 81//91 74//91
f 74//92 82//92 75//92
f 75//93 83//93 76//93
f 76//94 84//94 77//94
f 78//95 77//95 86//95
f 79//96 78//96 87//96
f 79//97 87//97 72//97
f 81//98 80//98 89//98
f 82//99 81//99 90//99
f 83//100 82//100 91//100
f 83//101 91//101 84//101
f 84//102 92//102 85//102
f 85//103 93//103 86//103
f 86//104 94//104 87//104
f 80//105 87//105 88//105
f 89//106 88//106 97//106
f 90//107 89//107 98//107
f 90//108 98//108 91//108
f 91//109 99//109 92//109
f 93//110 92//110 101//110
f 93//111 101//111 94//111
f 94//112 102//112 95//112
f 95//113 103//113 88//113
f 97//114 96//114 33//114
f 97//115 33//115 98//115
f 98//116 34//116 99//116
f 99//117 35//117 100//117
f 101//118 100//118 37//118
f 102//119 101//119 38//119
f 103//120 102//120 39//120
f 103//121 39//121 96//121
f 104//61 112//61 105//61
f 106//60 105//60 114//60
f 107//59 106//59 115//59
f 107//58 115//58 108//58
f 108//65 116//65 109//65
f 109//64 117//64 110//64
f 110//63 118//63 111//63
f 104//62 111//62 112//62
f 113//69 112//69 121//69
f 113//68 121//68 114//68
f 115//67 114//67 123//67
f 115//66 123//66 116//66
f 117//73 116//73 125//73
f 117//72 125//72 118//72
f 119//71 118//71 127//71
f 112//70 119//70 120//70
f 120//77 128//77 121//77
f 121//76 129//76 122//76
f 122//75 130//75 123//75
f 124//74 123//74 132//74
f 124//81 132//81 125//81
f 125//80 133//80 126//80
f 127//79 126//79 135//79
f 120//78 127//78 128//78
f 128//85 136//85 129//85
f 130//84 129//84 138//84
f 130//83 138//83 131//83
f 132//82 131//82 140//82
f 132//89 140//89 133//89
f 134//88 133//88 142//88
f 134//87 142//87 135//87
f 135//86 143//86 128//86
f 136//93 144//93 137//93
f 137//92 145//92 138//92
f 139//91 138//91 147//91
f 139//90 147//90 140//90
f 140//97 148//97 141//97
f 141//96 149//96 142//96
f 143//95 142//95 151//95
f 143//94 151//94 136//94
f 144//101 152//101 145//101
f 145//100 153//100 146//100
f 147//99 146//99 155//99
f 147//98 155//98 148//98
f 149//105 148//105 157//105
f 149//104 157//104 150//104
f 151//103 150//103 159//103
f 151//102 159//102 144//102
f 153//109 152//109 161//109
f 154//108 153//108 162//108
f 154//107 162//107 155//107
f 156//106 155//106 164//106
f 157//113 156//113 165//113
f 157//112 165//112 158//112
f 158//111 166//111 159//111
f 159//110 167//110 152//110
f 160//117 168//117 161//117
f 161//116 169//116 162//116
f 163//115 162//115 171//115
f 163//114 171//114 164//114
f 164//121 172//121 165//121
f 166//120 165//120 174//120
f 167//119 166//119 175//119
f 167//118 175//118 160//118
